Coordinates
version=1
nRows=24
nColumns=24
inDegrees=yes

Units are S.I. units (second, meters, Newtons, ...)
Angles are in degrees.

endheader
time	pelvis_tilt	pelvis_list	pelvis_rotation	pelvis_tx	pelvis_ty	pelvis_tz	hip_flexion_r	hip_adduction_r	hip_rotation_r	knee_angle_r	ankle_angle_r	subtalar_angle_r	mtp_angle_r	hip_flexion_l	hip_adduction_l	hip_rotation_l	knee_angle_l	ankle_angle_l	subtalar_angle_l	mtp_angle_l	lumbar_extension	lumbar_bending	lumbar_rotation
      4.00500000	     -8.33125995	    -10.14312156	      1.29808106	     -0.95653059	     -0.02043207	      0.67583746	     14.38197826	     14.01249177	     -4.62216373	    -12.84024117	      0.65842031	     -3.65290250	      5.97576446	     28.29296293	    -16.45720414	     -2.86641385	    -70.25789546	     -7.65531522	     17.40068267	     32.17011526	      5.27935862	     11.63469092	     -0.02349210
      4.01000000	     -8.33163118	     -9.83244232	      0.88763382	     -0.95010778	     -0.01944910	      0.67647496	     13.54008377	     13.85430467	     -4.04943905	    -12.26049679	      0.77569413	     -3.53089067	      5.91827589	     29.01304085	    -16.20577910	     -3.23890026	    -69.91812588	     -7.45354998	     17.68168991	     32.18579599	      5.21669766	     11.37279079	      0.45153765
      4.01500000	     -8.30076460	     -9.52788261	      0.43860463	     -0.94370167	     -0.01852087	      0.67714333	     12.66800751	     13.69948187	     -3.39872698	    -11.68894524	      0.89004477	     -3.43209596	      5.83460601	     29.66771374	    -15.99457105	     -3.68831261	    -69.51873132	     -7.27518505	     17.77272375	     32.11610579	      5.11129502	     11.12824904	      0.96387448
      4.02000000	     -8.22774641	     -9.26870715	     -0.00216596	     -0.93733309	     -0.01766387	      0.67780598	     11.75222039	     13.58158653	     -2.69510438	    -11.10712505	      0.97478395	     -3.42141901	      5.66299441	     30.27651940	    -15.83871170	     -4.13155351	    -69.07871814	     -7.09840031	     17.76009746	     31.94306360	      4.95741341	     10.92989097	      1.47757428
      4.02500000	     -8.22588525	     -8.95609643	     -0.44715024	     -0.93095951	     -0.01692215	      0.67846682	     10.94999803	     13.37947404	     -2.12024553	    -10.58342382	      1.10891844	     -3.27102425	      5.59216937	     30.92550853	    -15.61875262	     -4.58246456	    -68.54626928	     -6.93923576	     17.71485361	     31.77137365	      4.89175628	     10.67024405	      1.95850923
      4.03000000	     -8.18882406	     -8.67710798	     -0.89931972	     -0.92461943	     -0.01625381	      0.67912074	     10.11782210	     13.19927074	     -1.52328914	    -10.06373854	      1.24060612	     -3.12487864	      5.51077604	     31.52469564	    -15.45082810	     -5.05354126	    -67.96927414	     -6.78364902	     17.54543863	     31.51583779	      4.78140997	     10.44951827	      2.45395248
      4.03500000	     -8.15409189	     -8.40595009	     -1.34438997	     -0.91830063	     -0.01567910	      0.67976793	      9.30438280	     13.01053960	     -0.95052070	     -9.56013981	      1.37917005	     -2.97442538	      5.43699742	     32.11098568	    -15.29228997	     -5.51910307	    -67.33313167	     -6.63113266	     17.32421214	     31.19899859	      4.67602091	     10.23164257	      2.93122260
      4.04000000	     -8.11672168	     -8.14471716	     -1.78874760	     -0.91200552	     -0.01519226	      0.68041862	      8.50461444	     12.81761806	     -0.39569006	     -9.07448467	      1.52325188	     -2.81241420	      5.37608538	     32.67571728	    -15.15019461	     -5.98701606	    -66.63868252	     -6.47705188	     17.05364173	     30.81439180	      4.56768384	     10.02308916	      3.40357134
      4.04500000	     -8.03453167	     -7.91474667	     -2.23324717	     -0.90573863	     -0.01477485	      0.68107039	      7.66439802	     12.64474930	      0.18599007	     -8.59658685	      1.67365547	     -2.67491599	      5.29717412	     33.17345025	    -15.04914433	     -6.44497572	    -65.90046116	     -6.27005136	     16.84284461	     30.26745739	      4.40529124	      9.84495958	      3.88955702
      4.05000000	     -8.04945873	     -7.66308464	     -2.64144332	     -0.89946814	     -0.01451147	      0.68166705	      6.96368493	     12.42831715	      0.63221241	     -8.15669510	      1.83592112	     -2.47762050	      5.30048047	     33.76798760	    -14.90195101	     -6.88614896	    -65.08114373	     -6.15414488	     16.43968832	     29.83980645	      4.36684593	      9.63763918	      4.27711825
      4.05500000	     -7.96081975	     -7.44635947	     -3.08095835	     -0.89323173	     -0.01426061	      0.68229777	      6.15555869	     12.23862932	      1.15156421	     -7.72738780	      2.01424079	     -2.28681758	      5.31979246	     34.20914766	    -14.82094996	     -7.34801071	    -64.21453170	     -5.93437266	     16.21111175	     29.20499388	      4.19998147	      9.46852980	      4.74833397
      4.06000000	     -7.98153851	     -7.21820376	     -3.46434144	     -0.88698703	     -0.01418726	      0.68285380	      5.49830583	     12.02284533	      1.54952009	     -7.33346054	      2.20169011	     -2.09924223	      5.36741729	     34.77084051	    -14.69241493	     -7.76844573	    -63.26995602	     -5.82724177	     15.79484301	     28.73366331	      4.17157285	      9.28348773	      5.09840409
      4.06500000	     -7.95026420	     -7.00339219	     -3.86745003	     -0.88077843	     -0.01415492	      0.68341949	      4.80009469	     11.81031674	      1.97721979	     -6.96284300	      2.40623127	     -1.89994959	      5.44366451	     35.23680659	    -14.59687992	     -8.21221795	    -62.26106220	     -5.67188809	     15.48337957	     28.20163116	      4.07356180	      9.11288826	      5.49792223
      4.07000000	     -7.85931937	     -6.83377600	     -4.25040291	     -0.87459275	     -0.01418366	      0.68395960	      4.04750914	     11.63119572	      2.41427743	     -6.60473686	      2.61855960	     -1.73602538	      5.55737082	     35.62176465	    -14.53814788	     -8.62158201	    -61.21220431	     -5.45136328	     15.30027438	     27.49531198	      3.90522350	      8.98086304	      5.88949804
      4.07500000	     -7.88476946	     -6.63850956	     -4.58162341	     -0.86837487	     -0.01437504	      0.68443542	      3.45231899	     11.42187443	      2.75174114	     -6.28708216	      2.83070715	     -1.59621723	      5.63942421	     36.11693670	    -14.41716053	     -8.99010230	    -60.06329417	     -5.33811683	     15.02416045	     27.01346869	      3.88771928	      8.81738951	      6.17580594
      4.08000000	     -7.85094914	     -6.46015916	     -4.92856426	     -0.86218820	     -0.01459479	      0.68489121	      2.80943876	     11.21716044	      3.12536815	     -5.99942819	      3.07049765	     -1.44931586	      5.74275754	     36.50678893	    -14.32593273	     -9.38564699	    -58.85019056	     -5.18674351	     14.85838936	     26.48372351	      3.78983241	      8.67932483	      6.51019091
      4.08500000	     -7.77171725	     -6.32984690	     -5.24690585	     -0.85602345	     -0.01489194	      0.68530865	      2.12640955	     11.05055641	      3.51048066	     -5.72543475	      3.32658062	     -1.33241657	      5.86648448	     36.83632693	    -14.26356080	     -9.73799919	    -57.59966097	     -5.00080875	     14.79943376	     25.84561981	      3.63694342	      8.57856094	      6.81308861
      4.09000000	     -7.83474693	     -6.19492738	     -5.46990759	     -0.84983756	     -0.01541037	      0.68557715	      1.63132907	     10.87947215	      3.79535018	     -5.49929313	      3.60859311	     -1.23604322	      5.92955956	     37.31907608	    -14.11760972	     -9.94987809	    -56.24397375	     -4.88952050	     14.80220008	     25.55399903	      3.66134896	      8.48045383	      6.95713136
      4.09500000	     -7.82879725	     -6.03439623	     -5.75628635	     -0.84364510	     -0.01589636	      0.68592257	      1.07509884	     10.67519679	      4.11973272	     -5.30079924	      3.91630528	     -1.12997361	      6.00522898	     37.65497260	    -13.99637578	    -10.28625645	    -54.81174443	     -4.78320588	     14.84893272	     25.17196244	      3.59649196	      8.35102253	      7.23295871
      4.10000000	     -7.69150655	     -5.91114542	     -6.05523292	     -0.83746715	     -0.01629654	      0.68628881	      0.38243873	     10.49462308	      4.45063508	     -5.11560689	      4.17157905	     -1.05004797	      6.08898282	     37.80146283	    -13.91992762	    -10.66615651	    -53.32941460	     -4.61880513	     14.99839497	     24.53724021	      3.37543233	      8.23997741	      7.55856790
      4.10500000	     -7.69701804	     -5.78348070	     -6.27084136	     -0.83121202	     -0.01693735	      0.68655141	     -0.13894880	     10.31750359	      4.69331214	     -4.95518267	      4.46316411	     -0.99804879	      6.14188086	     38.09832561	    -13.77906727	    -10.93298851	    -51.76808876	     -4.51014587	     15.27151488	     24.14223316	      3.33947682	      8.12980255	      7.75738409
      4.11000000	     -7.67916155	     -5.67233152	     -6.47452699	     -0.82499704	     -0.01762512	      0.68672405	     -0.66734424	     10.14443045	      4.95025323	     -4.82582474	      4.77894126	     -0.92671708	      6.19081764	     38.34109983	    -13.62726702	    -11.16488913	    -50.14132873	     -4.41113573	     15.62657266	     23.79034654	      3.26007838	      8.04310677	      7.94677378
      4.11500000	     -7.65287413	     -5.56033392	     -6.66342243	     -0.81877307	     -0.01836709	      0.68687558	     -1.19089967	      9.96593716	      5.19895817	     -4.72158371	      5.11837011	     -0.85394953	      6.23351032	     38.54028463	    -13.45645308	    -11.37954945	    -48.44986159	     -4.32755268	     16.06828330	     23.44835629	      3.17259536	      7.94858664	      8.12596281
      4.12000000	     -7.71761776	     -5.47886869	     -6.78072323	     -0.81252445	     -0.01931229	      0.68693329	     -1.59782899	      9.83198593	      5.36502481	     -4.65311806	      5.47598126	     -0.83180491	      6.26807892	     38.84092667	    -13.26317359	    -11.48454272	    -46.71299523	     -4.28001900	     16.60105741	     23.25975419	      3.19336191	      7.88756704	      8.18454290
